<?xml version="1.0" standalone="no"?>
<!DOCTYPE svg PUBLIC "-//W3C//DTD SVG 20010904//EN"
 "http://www.w3.org/TR/2001/REC-SVG-20010904/DTD/svg10.dtd">
<svg version="1.0" xmlns="http://www.w3.org/2000/svg"
 width="168.000000pt" height="300.000000pt" viewBox="0 0 168.000000 300.000000"
 preserveAspectRatio="xMidYMid meet">

<g transform="translate(0.000000,300.000000) scale(0.100000,-0.100000)"
fill="#FF0000" stroke="blue" stroke-width="10">
<path d="M653 2161 l-71 -26 -149 -175 c-82 -96 -152 -180 -156 -187 -5 -8 59
-56 188 -143 174 -118 194 -134 184 -151 -9 -18 -12 -18 -40 -3 -17 8 -33 13
-35 11 -3 -3 9 -139 26 -302 29 -279 33 -300 55 -327 l25 -30 0 34 c0 18 -7
150 -15 293 l-14 260 35 53 c20 30 34 55 32 56 -2 1 -78 60 -171 130 l-167
127 157 177 c86 97 168 189 181 205 31 32 27 32 -65 -2z"/>
<path d="M957 2167 c222 -249 333 -378 333 -385 0 -7 -260 -211 -323 -253 -5
-4 7 -31 27 -60 l35 -54 -14 -245 c-8 -135 -15 -265 -15 -290 l0 -45 24 25
c23 24 26 41 55 324 17 165 29 301 27 304 -2 2 -18 -4 -35 -12 -29 -15 -31
-15 -41 4 -9 18 8 32 186 150 175 117 194 133 182 148 -7 9 -78 93 -157 187
-80 93 -146 171 -147 173 -1 2 -37 14 -80 27 l-77 24 20 -22z"/>
<path d="M724 2064 c-33 -12 -64 -41 -158 -149 l-116 -135 146 -121 c107 -89
148 -119 157 -110 10 10 -19 41 -187 193 l-40 36 132 151 c73 83 127 151 120
150 -7 0 -32 -7 -54 -15z"/>
<path d="M1020 1929 l132 -151 -84 -77 c-45 -43 -99 -91 -118 -109 -27 -23
-32 -33 -23 -42 8 -9 45 16 152 106 78 64 141 121 141 126 0 5 -50 67 -112
138 -94 109 -119 132 -157 145 -24 8 -48 15 -53 15 -5 0 50 -68 122 -151z"/>
<path d="M712 1884 l-119 -126 94 -91 c51 -49 93 -94 93 -99 0 -4 -11 -26 -24
-47 l-24 -38 54 -54 54 -53 54 53 55 54 -25 36 c-13 20 -24 40 -24 46 0 5 41
51 92 102 l92 92 -118 125 c-65 70 -122 126 -126 126 -5 0 -62 -57 -128 -126z
m61 -182 c46 -88 29 -93 -41 -13 l-64 71 34 38 33 37 5 -40 c3 -22 18 -64 33
-93z m176 -11 c-72 -80 -88 -74 -40 16 18 33 31 71 31 92 l0 36 36 -37 37 -36
-64 -71z m-84 -145 c19 -34 19 -36 0 -55 -22 -25 -33 -26 -57 -5 -17 16 -17
18 4 55 12 22 25 39 28 39 4 0 15 -16 25 -34z"/>
<path d="M699 1430 l-24 -40 18 -298 c14 -233 22 -300 33 -312 14 -13 15 -6
10 65 -4 44 -11 183 -17 309 -9 213 -9 232 8 263 12 23 14 36 7 43 -8 8 -18 0
-35 -30z"/>
<path d="M942 1458 c-8 -8 -6 -18 9 -39 20 -28 20 -32 4 -323 -19 -364 -19
-336 -1 -310 10 14 19 101 32 315 l18 294 -25 37 c-19 28 -28 35 -37 26z"/>
<path d="M745 1404 c-24 -37 -15 -128 16 -158 l21 -21 -11 22 c-14 28 -14 118
0 145 18 33 -5 44 -26 12z"/>
<path d="M906 1422 c-4 -7 -2 -20 4 -31 16 -31 12 -118 -7 -149 l-16 -27 25
25 c36 35 47 133 19 169 -12 15 -21 20 -25 13z"/>
<path d="M775 1379 c-5 -16 1 -30 26 -55 l34 -34 33 26 c23 18 32 34 32 55 0
35 -6 36 -37 7 l-23 -21 -23 21 c-29 27 -34 27 -42 1z"/>
</g>
</svg>
